<?xml version="1.0" encoding="utf-8"?>
<!-- Generator: Adobe Illustrator 19.1.0, SVG Export Plug-In . SVG Version: 6.00 Build 0)  -->
<svg version="1.1" id="Layer_1" xmlns="http://www.w3.org/2000/svg" xmlns:xlink="http://www.w3.org/1999/xlink" x="0px" y="0px"
	 viewBox="0 0 256 256" style="enable-background:new 0 0 256 256;" xml:space="preserve">
<style type="text/css">
	.st0{display:none;}
	.st1{display:inline;}
	.st2{fill:#1A1A1A;}
	.st3{fill:#FFFFFF;}
	.st4{fill:none;stroke:#FFFFFF;stroke-width:12;stroke-linecap:round;stroke-miterlimit:10;}
	.st5{fill:none;stroke:#FFFFFF;stroke-width:2;stroke-linecap:round;stroke-miterlimit:10;}
	.st6{fill:none;stroke:#FFFFFF;stroke-width:12;stroke-miterlimit:10;}
	.st7{display:inline;fill:#FFFFFF;}
	.st8{font-family:'Lato-Bold';}
	.st9{font-size:150.8636px;}
	.st10{display:inline;fill:none;stroke:#FFFFFF;stroke-width:11;stroke-linejoin:round;stroke-miterlimit:10;}
	.st11{display:inline;enable-background:new    ;}
	.st12{display:inline;fill:none;stroke:#FFF100;stroke-width:12;stroke-linejoin:round;stroke-miterlimit:10;}
	.st13{fill:#FFF100;}
	.st14{display:inline;fill:none;stroke:#F16522;stroke-width:12;stroke-linejoin:round;stroke-miterlimit:10;}
	.st15{fill:#F16522;}
	.st16{display:inline;fill:none;stroke:#EC1C24;stroke-width:12;stroke-linejoin:round;stroke-miterlimit:10;}
	.st17{fill:#EC1C24;}
	.st18{fill:none;stroke:#FFFFFF;stroke-width:12;stroke-linejoin:round;stroke-miterlimit:10;}
	.st19{font-family:'Ubuntu-Medium';}
	.st20{font-size:158.3935px;}
	.st21{display:inline;fill:#FFF100;}
	.st22{font-size:159.0452px;}
</style>
<g id="Layer_2_1_" class="st0">
	<g id="Layer_2" class="st1">
		<rect class="st2" width="256" height="256"/>
	</g>
</g>
<g id="Layer_1_2_" class="st0">
	<g id="Drizzle_Rain" class="st1">
		<path class="st3" d="M197,177.8H41.4c-22.6,0-40.9-18.4-40.9-40.9S18.7,96.1,41.1,96c3.2-39.4,35.9-70.2,75.8-70.2
			c27,0,51.5,14.1,65.2,37.1c4.9-1.3,9.9-2,14.9-2c32.2,0,58.5,26.2,58.5,58.5C255.5,151.6,229.3,177.8,197,177.8z M41.4,107.7
			c-16.1,0-29.2,13.1-29.2,29.2s13.1,29.2,29.2,29.2H197c25.8,0,46.8-21,46.8-46.8s-21-46.8-46.8-46.8c-5.3,0-10.6,0.9-15.7,2.8
			l-4.8,1.7l-2.3-4.6c-11.1-21.6-33-35-57.2-35c-35.5,0-64.3,28.9-64.3,64.3v6.8l-6.7-0.6C44.4,107.8,43,107.7,41.4,107.7z"/>
		<g>
			<path class="st3" d="M50.4,202.3l-18,18c-2.3,2.3-2.3,6,0,8.3c1.1,1.1,2.6,1.7,4.1,1.7s3-0.6,4.1-1.7l18-18c2.3-2.3,2.3-6,0-8.3
				C56.4,200,52.7,200,50.4,202.3z"/>
			<path class="st3" d="M121.4,202.3l-18,18c-2.3,2.3-2.3,6,0,8.3c1.1,1.1,2.6,1.7,4.1,1.7s3-0.6,4.1-1.7l18-18c2.3-2.3,2.3-6,0-8.3
				C127.4,200,123.7,200,121.4,202.3z"/>
			<path class="st3" d="M200.6,202.3c-2.3-2.3-6-2.3-8.3,0l-18,18c-2.3,2.3-2.3,6,0,8.3c1.1,1.1,2.6,1.7,4.1,1.7s3-0.6,4.1-1.7
				l18-18C202.9,208.3,202.9,204.6,200.6,202.3z"/>
		</g>
	</g>
	<g id="Layer_1_1_" class="st1">
		<g id="Partly_Cloudy_1_">
			<path class="st3" d="M194.8,201.6H46c-21.6,0-39.2-17.6-39.2-39.2c0-21.5,17.4-39,38.8-39.2c2.9-37.5,34.3-67.1,72.5-67.1
				c25.8,0,49.3,13.5,62.4,35.5c4.7-1.3,9.5-1.9,14.3-1.9c30.9,0,56,25.1,56,56C250.8,176.5,225.7,201.6,194.8,201.6z M46,134.4
				c-15.4,0-28,12.5-28,28s12.6,28,28,28h148.8c24.7,0,44.8-20.1,44.8-44.8s-20.1-44.8-44.8-44.8c-5.1,0-10.1,0.9-15,2.7l-4.6,1.7
				l-2.2-4.4c-10.6-20.7-31.6-33.5-54.7-33.5c-33.9,0-61.5,27.6-61.5,61.5v6.5l-6.4-0.5C48.8,134.6,47.4,134.4,46,134.4z"/>
		</g>
	</g>
	<g id="Wind" class="st1">
		<path class="st4" d="M29.7,177c15.3-10.5,40.1-23.5,71.8-24.7c13.9-0.5,46.5-1.7,59.1,17.9c4.5,7,7.3,18.1,2.4,25.1
			c-6.7,9.5-26.1,9.3-35.5,0c-2.9-2.9-4.4-6.3-5.2-9"/>
		<path class="st4" d="M18.2,155.9c10-7.4,45.3-25.8,81.4-29.2c14.3-1.3,33.3,0.3,51.3,3.3c20.9,3.5,28,8.1,50.9,12.1
			c15,2.7,28.1,1.9,40,13.8c3.5,3.4,10.6,14.7,2.4,28.4c-7.4,12.3-26.4,17.3-39.5,9.3c-10.9-6.7-12.9-19.4-13.2-21.5"/>
		<path class="st4" d="M8,133.5c17.6-12.1,34-19.2,46-23.3c11.7-4.1,29.1-8.3,52.1-8.3c5.8,0,19.3,0.1,45.7,4.1
			c24.1,3.6,30.8,5,42.8,4.2c13.9-1,27.9-2.2,35.3-12.9c6.7-9.6,3.8-20.9,3.6-21.8c-4.1-15.4-22.2-24.2-37.4-22.1
			c-12.2,1.6-19.9,9.9-22.4,12.9"/>
	</g>
	<g id="Hail_Day_1_" class="st1">
		<g>
			<path class="st3" d="M151.5,231.4c-4.3,0-7.8,3.5-7.8,7.8s3.5,7.8,7.8,7.8s7.8-3.5,7.8-7.8S155.8,231.4,151.5,231.4z"/>
			<line class="st4" x1="188.3" y1="190.2" x2="167.8" y2="216.9"/>
		</g>
		<g>
			<path class="st3" d="M92.8,231.4c-4.3,0-7.8,3.5-7.8,7.8s3.5,7.8,7.8,7.8s7.8-3.5,7.8-7.8C100.6,234.9,97.1,231.4,92.8,231.4z"/>
			<line class="st4" x1="129.7" y1="190.2" x2="109.1" y2="216.9"/>
		</g>
		<g>
			<path class="st3" d="M34.1,231.4c-4.3,0-7.8,3.5-7.8,7.8s3.5,7.8,7.8,7.8s7.8-3.5,7.8-7.8C41.9,234.9,38.4,231.4,34.1,231.4z"/>
			<line class="st4" x1="71" y1="190.2" x2="50.4" y2="216.9"/>
		</g>
		<g>
			<path class="st3" d="M159.6-16.5c-18.6-1.1-36.8,8.8-45.9,25.2l10.3,5.7c7-12.5,20.7-20,35-19.2c10,0.6,19.2,5,25.8,12.5
				c6.7,7.5,10,17.1,9.4,27.1c-0.2,3.5-0.9,6.9-2,10.1l11.1,3.8c1.5-4.2,2.3-8.7,2.6-13.2c0.8-13.1-3.6-25.8-12.4-35.6
				C184.7-9.9,172.7-15.7,159.6-16.5z"/>
			<path class="st3" d="M246.1,31.9l-19.3-1.1c-3.1-0.2-6,2.3-6.2,5.5s2.3,6,5.5,6.2l19.3,1.1c0.1,0,0.2,0,0.3,0
				c3.1,0,5.7-2.4,5.9-5.5C251.8,34.9,249.3,32.1,246.1,31.9z"/>
			<path class="st3" d="M239-2.2c2.9-1.4,4.1-5,2.6-7.9c-1.4-2.9-5-4.1-7.9-2.6L216.5-4c-2.9,1.5-4.1,5-2.6,7.9
				c1,2.1,3.1,3.2,5.2,3.2c0.9,0,1.8-0.2,2.6-0.6L239-2.2z"/>
			<path class="st3" d="M208.9-46.8c-2.7-1.8-6.3-1-8.1,1.7l-10.6,16.2c-1.8,2.7-1,6.3,1.7,8.1c1,0.7,2.1,1,3.2,1
				c1.9,0,3.8-0.9,4.9-2.6l10.6-16.2C212.4-41.4,211.6-45,208.9-46.8z"/>
			<path class="st3" d="M160.4-31.2c0.1,0,0.2,0,0.3,0c3.1,0,5.7-2.4,5.8-5.5l1.1-19.3c0.2-3.2-2.3-6-5.5-6.2s-6,2.3-6.2,5.5
				l-1.1,19.3C154.7-34.2,157.2-31.4,160.4-31.2z"/>
			<path class="st3" d="M125.4-23.9c0.9,0,1.8-0.2,2.6-0.6c2.9-1.5,4.1-5,2.6-7.9l-8.7-17.3c-1.4-2.9-5-4.1-7.9-2.6s-4.1,5-2.6,7.9
				l8.7,17.3C121.2-25.1,123.2-23.9,125.4-23.9z"/>
			<path class="st3" d="M101.6-10.6L85.4-21.3c-2.7-1.8-6.3-1-8.1,1.7c-1.8,2.7-1,6.3,1.7,8.1L95.2-0.8c1,0.7,2.1,1,3.2,1
				c1.9,0,3.8-0.9,4.9-2.6C105.1-5.2,104.3-8.9,101.6-10.6z"/>
		</g>
		<path class="st3" d="M197.3,158.4H41.1C18.4,158.4,0,140,0,117.3c0-22.6,18.3-40.9,40.8-41.1c3.2-39.5,36.1-70.4,76-70.4
			c27,0,51.7,14.1,65.5,37.2c4.9-1.3,9.9-2,14.9-2c32.4,0,58.7,26.3,58.7,58.7C255.9,132,229.6,158.4,197.3,158.4z M41.1,87.9
			c-16.2,0-29.3,13.2-29.3,29.3c0,16.2,13.2,29.3,29.3,29.3h156.1c25.9,0,46.9-21.1,46.9-46.9c0-25.9-21.1-47-46.9-47
			c-5.3,0-10.6,0.9-15.8,2.8l-4.8,1.7l-2.4-4.6c-11.1-21.7-33.1-35.2-57.4-35.2c-35.6,0-64.6,29-64.6,64.6v6.8l-6.7-0.6
			C43.9,88,42.4,87.9,41.1,87.9z"/>
	</g>
	<g id="Isolated_Thunderstorms" class="st1">
		<polyline class="st3" points="147.9,158.4 143.6,179.3 167.5,179.3 115.6,245.6 125.3,197.9 100.3,197.9 108.4,158.4 		"/>
		<path class="st3" d="M197.3,163.1H41.1C18.4,163.1,0,144.6,0,122c0-22.5,18.2-40.9,40.7-41.1c3-39.4,36-70.5,76.1-70.5
			c27.1,0,51.7,14.1,65.5,37.2c4.9-1.3,9.9-2,15-2c32.4,0,58.7,26.3,58.7,58.7S229.7,163.1,197.3,163.1z M41.1,92.6
			c-16.2,0-29.4,13.2-29.4,29.4s13.2,29.4,29.4,29.4h156.2c25.9,0,47-21.1,47-47s-21.1-47-47-47c-5.3,0-10.6,0.9-15.8,2.8l-4.8,1.7
			l-2.4-4.6c-11.1-21.7-33.1-35.2-57.5-35.2c-35.6,0-64.6,29-64.6,64.6v6.8L45.6,93C44.1,92.8,42.6,92.6,41.1,92.6z"/>
	</g>
	<g id="Blizzard" class="st1">
		<g>
			<path class="st3" d="M69.3,190.3c-4.9,0-8.8,3.9-8.8,8.8c0,4.9,3.9,8.8,8.8,8.8s8.8-3.9,8.8-8.8
				C78.1,194.2,74.2,190.3,69.3,190.3z"/>
			<path class="st3" d="M128,190.3c-4.9,0-8.8,3.9-8.8,8.8c0,4.9,3.9,8.8,8.8,8.8c4.9,0,8.8-3.9,8.8-8.8S132.9,190.3,128,190.3z"/>
			<path class="st3" d="M186.7,190.3c-4.9,0-8.8,3.9-8.8,8.8c0,4.9,3.9,8.8,8.8,8.8c4.9,0,8.8-3.9,8.8-8.8S191.6,190.3,186.7,190.3z
				"/>
			<path class="st3" d="M157.4,226.7c-4.3,0-7.8,3.5-7.8,7.8s3.5,7.8,7.8,7.8s7.8-3.5,7.8-7.8S161.7,226.7,157.4,226.7z"/>
			<path class="st3" d="M98.7,225.7c-4.9,0-8.8,3.9-8.8,8.8c0,4.9,3.9,8.8,8.8,8.8s8.8-3.9,8.8-8.8
				C107.5,229.6,103.5,225.7,98.7,225.7z"/>
		</g>
		<path class="st3" d="M197.3,165.4H41.1C18.4,165.4,0,146.9,0,124.3s18.3-40.9,40.8-41.1c3.2-39.6,36.1-70.5,76.1-70.5
			c27.1,0,51.7,14.1,65.5,37.2c4.9-1.3,9.9-2,15-2c32.4,0,58.7,26.3,58.7,58.7C256,139,229.7,165.4,197.3,165.4z M41.1,94.9
			c-16.2,0-29.4,13.2-29.4,29.4s13.2,29.4,29.4,29.4h156.2c25.9,0,47-21.1,47-47s-21.1-47-47-47c-5.3,0-10.6,0.9-15.8,2.8l-4.8,1.7
			l-2.4-4.6c-11.1-21.7-33.1-35.2-57.5-35.2c-35.6,0-64.6,29-64.6,64.6v6.8l-6.7-0.6C43.8,95,42.4,94.9,41.1,94.9z"/>
	</g>
	<g id="Sunny" class="st1">
		<path class="st3" d="M62.3,128c0,36.2,29.4,65.6,65.7,65.6c36.2,0,65.7-29.4,65.7-65.6S164.2,62.4,128,62.4S62.3,91.8,62.3,128z
			 M178.4,128c0,27.8-22.6,50.4-50.4,50.4S77.6,155.8,77.6,128s22.6-50.4,50.4-50.4S178.4,100.2,178.4,128z"/>
		<path class="st3" d="M42.2,128c0-4.2-3.4-7.6-7.6-7.6h-26c-4.2,0-7.6,3.4-7.6,7.6s3.4,7.6,7.6,7.6h25.9
			C38.8,135.6,42.2,132.2,42.2,128z"/>
		<path class="st3" d="M247.4,120.4h-25.9c-4.2,0-7.6,3.4-7.6,7.6s3.4,7.6,7.6,7.6h25.9c4.2,0,7.6-3.4,7.6-7.6
			C255,123.8,251.6,120.4,247.4,120.4z"/>
		<path class="st3" d="M43.3,168.1l-22.5,13c-3.6,2.1-4.9,6.8-2.8,10.4c1.4,2.5,4,3.8,6.6,3.8c1.3,0,2.6-0.3,3.8-1l22.5-13
			c3.6-2.1,4.9-6.8,2.8-10.4C51.6,167.3,46.9,166,43.3,168.1z"/>
		<path class="st3" d="M208.9,88.9c1.3,0,2.6-0.3,3.8-1l22.5-13c3.6-2.1,4.9-6.8,2.8-10.4c-2.1-3.6-6.8-4.9-10.4-2.8l-22.5,13
			c-3.6,2.1-4.9,6.8-2.8,10.4C203.7,87.6,206.3,88.9,208.9,88.9z"/>
		<path class="st3" d="M85.1,202.3c-3.6-2.1-8.3-0.9-10.4,2.8l-13,22.5c-2.1,3.6-0.9,8.3,2.8,10.4c1.2,0.7,2.5,1,3.8,1
			c2.6,0,5.2-1.4,6.6-3.8l13-22.5C90,209.1,88.7,204.4,85.1,202.3z"/>
		<path class="st3" d="M191.5,18c-3.6-2.1-8.3-0.9-10.4,2.8l-13,22.4c-2.1,3.6-0.9,8.3,2.8,10.4c1.2,0.7,2.5,1,3.8,1
			c2.6,0,5.2-1.4,6.6-3.8l13-22.4C196.4,24.8,195.1,20.1,191.5,18z"/>
		<path class="st3" d="M128,213.8L128,213.8c-4.2,0-7.6,3.4-7.6,7.6v25.9c0,4.2,3.4,7.6,7.6,7.6l0,0c4.2,0,7.6-3.4,7.6-7.6v-25.9
			C135.6,217.2,132.2,213.8,128,213.8z"/>
		<path class="st3" d="M128,42.2c4.2,0,7.6-3.4,7.6-7.6v-26c0-4.2-3.4-7.6-7.6-7.6c-4.2,0-7.6,3.4-7.6,7.6v25.9
			C120.4,38.8,123.8,42.2,128,42.2z"/>
		<path class="st3" d="M181.3,205.1c-2.1-3.7-6.8-4.9-10.4-2.8c-3.6,2.1-4.9,6.8-2.8,10.4l13,22.5c1.4,2.4,4,3.8,6.6,3.8
			c1.3,0,2.6-0.3,3.8-1c3.6-2.1,4.9-6.8,2.8-10.4L181.3,205.1z"/>
		<path class="st3" d="M74.7,50.9c1.4,2.5,4,3.8,6.6,3.8c1.3,0,2.6-0.3,3.8-1c3.6-2.1,4.9-6.8,2.8-10.4l-13-22.5
			c-2.1-3.6-6.8-4.9-10.4-2.8s-4.9,6.8-2.8,10.4L74.7,50.9z"/>
		<path class="st3" d="M235.2,181.1l-22.5-13c-3.6-2.1-8.3-0.9-10.4,2.8c-2.1,3.6-0.9,8.3,2.8,10.4l22.5,13c1.2,0.7,2.5,1,3.8,1
			c2.6,0,5.2-1.4,6.6-3.8C240.1,187.9,238.8,183.2,235.2,181.1z"/>
		<path class="st3" d="M50.9,74.7l-22.5-13c-3.6-2.1-8.3-0.9-10.4,2.8c-2.1,3.6-0.9,8.3,2.8,10.4l22.5,13c1.2,0.7,2.5,1,3.8,1
			c2.6,0,5.2-1.4,6.6-3.8C55.8,81.4,54.5,76.8,50.9,74.7z"/>
	</g>
	<g id="Partly_Cloudy_2_" class="st1">
		<path class="st3" d="M197.3,204.3H41.1C18.4,204.3,0,185.9,0,163.2c0-22.5,18.2-40.9,40.7-41.1c3-39.4,36-70.5,76.1-70.5
			c27.1,0,51.7,14.1,65.5,37.2c4.9-1.3,9.9-2,15-2c32.4,0,58.7,26.3,58.7,58.7C256,178,229.7,204.3,197.3,204.3z M41.1,133.9
			c-16.2,0-29.4,13.2-29.4,29.4s13.2,29.4,29.4,29.4h156.2c25.9,0,47-21.1,47-47s-21.1-47-47-47c-5.3,0-10.6,0.9-15.8,2.8l-4.8,1.7
			l-2.4-4.6c-11.1-21.7-33.1-35.2-57.5-35.2c-35.6,0-64.6,29-64.6,64.6v6.8l-6.7-0.6C44.1,134,42.6,133.9,41.1,133.9z"/>
	</g>
	<g id="Fog" class="st1">
		<g id="Lines">
			<line class="st4" x1="129.9" y1="162.2" x2="234.1" y2="162.2"/>
			<line class="st4" x1="105.3" y1="182.6" x2="209.6" y2="182.6"/>
			<line class="st4" x1="100.5" y1="205" x2="218.2" y2="205"/>
			<line class="st4" x1="112.7" y1="162.2" x2="74.1" y2="162.2"/>
			<line class="st4" x1="88.6" y1="182.6" x2="50" y2="182.6"/>
			<line class="st4" x1="83.7" y1="205" x2="45.1" y2="205"/>
		</g>
		<path class="st4" d="M248.3,138.8c0-0.9,0.1-1.8,0.1-2.7c0-26.8-21.8-48.6-48.6-48.6c-5.5,0-11,1-16.3,2.9l-5,1.8l-2.4-4.7
			C164.4,65,141.6,51,116.5,51c-36.9,0-66.8,30-66.8,66.9v7l-6.9-0.6c-1.5-0.2-3-0.4-4.6-0.4c-16.8,0-30.4,13.6-30.4,30.4
			c0,11.2,6.1,21,15.2,26.3"/>
	</g>
	<g id="Haze" class="st1">
		<path class="st3" d="M49.9,145.3c0-3.8-3.1-6.9-6.9-6.9H19.3c-3.8,0-6.9,3.1-6.9,6.9c0,3.8,3.1,6.9,6.9,6.9h23.6
			C46.8,152.3,49.9,149.2,49.9,145.3z"/>
		<path class="st3" d="M236.7,138.4h-23.6c-3.8,0-6.9,3.1-6.9,6.9c0,3.8,3.1,6.9,6.9,6.9h23.6c3.8,0,6.9-3.1,6.9-6.9
			C243.6,141.5,240.5,138.4,236.7,138.4z"/>
		<path class="st3" d="M201.7,109.7c1.2,0,2.4-0.3,3.5-0.9L225.6,97c3.3-1.9,4.5-6.2,2.5-9.5c-1.9-3.3-6.2-4.5-9.5-2.5l-20.5,11.8
			c-3.3,1.9-4.5,6.2-2.5,9.5C196.9,108.5,199.3,109.7,201.7,109.7z"/>
		<path class="st3" d="M185.8,45.2c-3.3-1.9-7.6-0.8-9.5,2.5l-11.8,20.4c-1.9,3.3-0.8,7.6,2.5,9.5c1.1,0.6,2.3,0.9,3.5,0.9
			c2.4,0,4.7-1.2,6-3.5l11.8-20.4C190.3,51.3,189.1,47.1,185.8,45.2z"/>
		<path class="st3" d="M128,67.2c3.8,0,6.9-3.1,6.9-6.9V36.6c0-3.8-3.1-6.9-6.9-6.9c-3.8,0-6.9,3.1-6.9,6.9v23.6
			C121,64.1,124.2,67.2,128,67.2z"/>
		<path class="st3" d="M79.4,75.1c1.3,2.2,3.6,3.5,6,3.5c1.2,0,2.4-0.3,3.5-0.9c3.3-1.9,4.5-6.2,2.5-9.5L79.7,47.7
			c-1.9-3.3-6.2-4.5-9.5-2.5c-3.3,1.9-4.5,6.2-2.5,9.5L79.4,75.1z"/>
		<path class="st3" d="M57.8,96.8L37.3,85c-3.3-1.9-7.6-0.8-9.5,2.5S27,95.1,30.3,97l20.5,11.8c1.1,0.6,2.3,0.9,3.5,0.9
			c2.4,0,4.7-1.2,6-3.5C62.2,102.9,61.1,98.7,57.8,96.8z"/>
		<path class="st5" d="M178.5,159.6"/>
		<path class="st4" d="M76.2,153.7c-0.4-2.7-0.7-5.5-0.7-8.4c0-29,23.5-52.5,52.5-52.5s52.5,23.5,52.5,52.5c0,2.8-0.2,5.6-0.6,8.3"
			/>
		<line class="st4" x1="116.6" y1="175.1" x2="241.3" y2="175.1"/>
		<line class="st4" x1="87.2" y1="199.5" x2="211.9" y2="199.5"/>
		<line class="st4" x1="81.4" y1="226.3" x2="222.2" y2="226.3"/>
		<line class="st4" x1="96" y1="175.1" x2="49.9" y2="175.1"/>
		<line class="st4" x1="67.2" y1="199.5" x2="21" y2="199.5"/>
		<line class="st4" x1="61.3" y1="226.3" x2="15.1" y2="226.3"/>
	</g>
	<g id="Partly_Cloudy" class="st1">
		<g>
			<path class="st3" d="M163.4,63.8c-18.5-1.1-36.6,8.8-45.7,25.2l10.2,5.7c6.9-12.5,20.6-20,34.8-19.2c10,0.6,19.1,5,25.7,12.4
				c6.6,7.5,10,17,9.4,27c-0.2,3.4-0.9,6.8-2,10l11.1,3.8c1.5-4.2,2.3-8.6,2.6-13.2c0.8-13.1-3.6-25.7-12.3-35.5
				C188.5,70.4,176.4,64.6,163.4,63.8z"/>
			<path class="st3" d="M249.6,112.1l-19.3-1.1c-3.2-0.2-6,2.3-6.2,5.5s2.3,6,5.5,6.2l19.3,1.1c0.1,0,0.2,0,0.3,0
				c3.1,0,5.7-2.4,5.8-5.5C255.3,115,252.8,112.3,249.6,112.1z"/>
			<path class="st3" d="M242.6,78.1c2.9-1.4,4.1-5,2.6-7.8c-1.4-2.9-5-4-7.8-2.6l-17.3,8.7c-2.9,1.4-4.1,5-2.6,7.8
				c1,2,3.1,3.2,5.2,3.2c0.9,0,1.8-0.2,2.6-0.6L242.6,78.1z"/>
			<path class="st3" d="M212.6,33.6c-2.7-1.8-6.3-1-8.1,1.7l-10.6,16.1c-1.8,2.7-1,6.3,1.7,8.1c1,0.7,2.1,1,3.2,1
				c1.9,0,3.8-0.9,4.9-2.6l10.6-16.1C216,39,215.3,35.4,212.6,33.6z"/>
			<path class="st3" d="M164.2,49.2c0.1,0,0.2,0,0.3,0c3.1,0,5.7-2.4,5.8-5.5l1.1-19.3c0.2-3.2-2.3-6-5.5-6.2
				c-3.1-0.2-6,2.3-6.2,5.5l-1,19.3C158.5,46.2,161,49,164.2,49.2z"/>
			<path class="st3" d="M129.3,56.5c0.9,0,1.8-0.2,2.6-0.6c2.9-1.5,4-5,2.6-7.8l-8.7-17.3c-1.4-2.9-4.9-4-7.9-2.6
				c-2.9,1.4-4,5-2.6,7.8l8.7,17.3C125.1,55.3,127.2,56.5,129.3,56.5z"/>
			<path class="st3" d="M105.6,69.7L89.5,59.1c-2.7-1.8-6.3-1-8.1,1.7c-1.8,2.7-1,6.3,1.7,8.1l16.1,10.6c1,0.7,2.1,1,3.2,1
				c1.9,0,3.8-0.9,4.9-2.6C109.1,75.1,108.3,71.4,105.6,69.7z"/>
		</g>
		<path class="st3" d="M197,237.8H41.4c-22.6,0-40.9-18.4-40.9-40.9s18.2-40.7,40.6-40.9c3-39.2,35.9-70.2,75.8-70.2
			c27,0,51.5,14.1,65.2,37.1c4.9-1.3,9.9-2,14.9-2c32.2,0,58.5,26.2,58.5,58.5S229.3,237.8,197,237.8z M41.4,167.6
			c-16.1,0-29.3,13.1-29.3,29.2S25.2,226,41.4,226H197c25.8,0,46.8-21,46.8-46.8s-21-46.8-46.8-46.8c-5.3,0-10.6,0.9-15.7,2.8
			l-4.8,1.7l-2.3-4.6c-11.1-21.6-33-35-57.2-35c-35.5,0-64.3,28.9-64.3,64.3v6.8l-6.7-0.6C44.4,167.8,43,167.6,41.4,167.6z"/>
	</g>
	<g id="Mostly_Cloudy_Day_1_" class="st1">
		<g id="Sunny_2_">
			<path class="st3" d="M70.1,124.7c0-3.7-3-6.6-6.6-6.6H40.9c-3.7,0-6.6,3-6.6,6.6c0,3.7,3,6.6,6.6,6.6h22.5
				C67.1,131.3,70.1,128.3,70.1,124.7z"/>
			<path class="st3" d="M248.4,118h-22.5c-3.7,0-6.6,3-6.6,6.6c0,3.7,3,6.6,6.6,6.6h22.5c3.7,0,6.6-3,6.6-6.6S252,118,248.4,118z"/>
			<path class="st3" d="M215,90.7c1.1,0,2.3-0.3,3.3-0.9l19.5-11.3c3.2-1.8,4.3-5.9,2.4-9.1c-1.8-3.2-5.9-4.3-9.1-2.4l-19.5,11.3
				c-3.2,1.8-4.3,5.9-2.4,9C210.4,89.5,212.7,90.7,215,90.7z"/>
			<path class="st3" d="M199.8,29.1c-3.2-1.8-7.2-0.8-9.1,2.4L179.5,51c-1.8,3.2-0.7,7.2,2.4,9.1c1,0.6,2.2,0.9,3.3,0.9
				c2.3,0,4.5-1.2,5.7-3.3l11.3-19.5C204.1,35,203,30.9,199.8,29.1z"/>
			<path class="st3" d="M144.6,50.1c3.7,0,6.6-3,6.6-6.6V20.9c0-3.7-3-6.6-6.6-6.6c-3.7,0-6.6,3-6.6,6.6v22.5
				C138,47.1,141,50.1,144.6,50.1z"/>
			<path class="st3" d="M98.3,57.7c1.2,2.1,3.5,3.3,5.7,3.3c1.1,0,2.3-0.3,3.3-0.9c3.2-1.8,4.3-5.9,2.4-9.1L98.5,31.5
				c-1.8-3.2-5.9-4.3-9.1-2.4c-3.2,1.8-4.3,5.9-2.4,9L98.3,57.7z"/>
			<path class="st3" d="M237.8,170.8l-19.5-11.3c-3.2-1.8-7.2-0.8-9.1,2.4c-1.8,3.2-0.7,7.2,2.4,9.1l19.5,11.3
				c1,0.6,2.2,0.9,3.3,0.9c2.3,0,4.5-1.2,5.7-3.3C242.1,176.7,241,172.6,237.8,170.8z"/>
			<path class="st3" d="M77.6,78.3L58.1,67.1c-3.2-1.8-7.2-0.8-9.1,2.4c-1.8,3.2-0.7,7.2,2.4,9.1L71,89.8c1,0.6,2.2,0.9,3.3,0.9
				c2.3,0,4.5-1.2,5.7-3.3C81.9,84.2,80.8,80.2,77.6,78.3z"/>
			<path class="st6" d="M95.1,134.4c-0.6-3.1-0.9-6.4-0.9-9.7l0,0c0-27.8,22.7-50.5,50.5-50.5l0,0c27.8,0,50.5,22.7,50.5,50.5l0,0
				c0,16.9-8.4,32-21.3,41.1"/>
		</g>
		<path class="st6" d="M157,233.7H28.2c-11.7,0-21.2-9.5-21.2-21.2s9.5-21.2,21.2-21.2c1.1,0,2.1,0.1,3.2,0.3l7.6,0.8v-7.7
			c0-27,22-49,49-49c19,0,36.4,11.1,44.4,28.4l2.9,6.2l6.1-3c5-2.5,10.2-3.7,15.7-3.7c19.3,0,35.1,15.7,35.1,35.1
			S176.4,233.7,157,233.7z"/>
	</g>
	<g id="Mostly_Cloudy_Day" class="st1">
		<g>
			<path class="st3" d="M163.5,49.7c-18.6-1.1-36.7,8.8-45.8,25.2l10.2,5.7c6.9-12.5,20.6-20,34.9-19.2c10,0.6,19.1,5,25.8,12.5
				c6.6,7.5,10,17.1,9.4,27.1c-0.2,3.5-0.9,6.8-2,10.1l11.1,3.8c1.5-4.2,2.3-8.7,2.6-13.2c0.8-13.1-3.6-25.7-12.4-35.6
				C188.6,56.3,176.6,50.5,163.5,49.7z"/>
			<path class="st3" d="M249.9,98.1L230.5,97c-3.2-0.2-6,2.3-6.2,5.5s2.3,6,5.5,6.2l19.3,1.1c0.1,0,0.2,0,0.3,0
				c3.1,0,5.7-2.4,5.8-5.5C255.6,101.1,253.1,98.3,249.9,98.1z"/>
			<path class="st3" d="M242.8,64c2.9-1.5,4.1-5,2.6-7.9c-1.4-2.9-5-4.1-7.9-2.6l-17.3,8.7c-2.9,1.5-4.1,5-2.6,7.9
				c1,2,3.1,3.2,5.2,3.2c0.9,0,1.8-0.2,2.6-0.6L242.8,64z"/>
			<path class="st3" d="M212.8,19.5c-2.7-1.8-6.3-1-8.1,1.7L194,37.3c-1.8,2.7-1,6.3,1.7,8.1c1,0.7,2.1,1,3.2,1
				c1.9,0,3.8-0.9,4.9-2.6l10.6-16.2C216.2,24.9,215.5,21.2,212.8,19.5z"/>
			<path class="st3" d="M164.3,35c0.1,0,0.2,0,0.3,0c3.1,0,5.7-2.4,5.8-5.5l1.1-19.3c0.2-3.2-2.3-6-5.5-6.2c-3.1-0.2-6,2.3-6.2,5.5
				l-1.1,19.3C158.6,32.1,161.1,34.9,164.3,35z"/>
			<path class="st3" d="M129.3,42.3c0.9,0,1.8-0.2,2.6-0.6c2.9-1.5,4.1-5,2.6-7.9l-8.7-17.3c-1.4-2.9-5-4.1-7.9-2.6s-4.1,5-2.6,7.9
				l8.7,17.3C125.1,41.2,127.2,42.3,129.3,42.3z"/>
			<path class="st3" d="M105.6,55.6L89.4,45c-2.7-1.8-6.3-1-8.1,1.7c-1.8,2.7-1,6.3,1.7,8.1l16.2,10.6c1,0.7,2.1,1,3.2,1
				c1.9,0,3.8-0.9,4.9-2.6C109,61,108.3,57.3,105.6,55.6z"/>
		</g>
		<path class="st3" d="M255.8,165.5c0-32.3-26.3-58.6-58.6-58.6c-5,0-10,0.7-14.9,2c-13.7-23-38.4-37.1-65.4-37.1
			c-40,0-73,31.1-76,70.4c-22.5,0.2-40.7,18.5-40.7,41c0,22.6,18.4,41,41,41h10.3c1.3,15.6,14.3,27.9,30.2,27.9h113.9
			c23.6,0,42.8-19.2,42.8-42.8c0-0.7-0.1-1.4-0.1-2.1C249.4,196.1,255.8,181.2,255.8,165.5z M195.7,240.3h-114
			c-10.3,0-18.7-8.4-18.7-18.7s8.4-18.7,18.7-18.7c1,0,1.9,0.1,2.8,0.2l6.7,0.7V197c0-23.9,19.4-43.3,43.3-43.3
			c16.8,0,32.2,9.9,39.3,25.1l2.5,5.5l5.4-2.7c4.4-2.2,9.1-3.3,13.9-3.3c17.1,0,31,13.9,31,31S212.8,240.3,195.7,240.3z
			 M195.7,166.5c-4.7,0-9.4,0.8-13.8,2.3c-9.8-16.5-27.8-26.9-47.3-26.9c-28.3,0-51.7,21.5-54.7,49.2c-12.8,0.8-23.3,9.5-27.1,21.2
			H41.2c-16.2,0-29.3-13.2-29.3-29.3c0-16.2,13.2-29.3,29.3-29.3c1.5,0,3,0.2,4.5,0.4l6.7,0.5v-6.8c0-35.6,28.9-64.5,64.5-64.5
			c24.3,0,46.2,13.4,57.4,35.1l2.4,4.6l4.8-1.7c5.1-1.9,10.4-2.8,15.8-2.8c25.9,0,46.9,21,46.9,46.9c0,9.9-3.2,19.5-8.9,27.4
			C228.8,177.4,213.5,166.5,195.7,166.5z"/>
	</g>
	<g id="Heavy_Showrs" class="st1">
		<g>
			<path class="st3" d="M69.6,222.7l-17.9,17.9c-2.3,2.3-2.3,6,0,8.3c1.1,1.1,2.6,1.7,4.1,1.7s3-0.6,4.1-1.7L77.8,231
				c2.3-2.3,2.3-6,0-8.3C75.5,220.5,71.8,220.5,69.6,222.7z"/>
			<path class="st3" d="M58.7,181.7c-2.3-2.3-6-2.3-8.3,0l-17.9,17.9c-2.3,2.3-2.3,6,0,8.3c1.1,1.1,2.6,1.7,4.1,1.7s3-0.6,4.1-1.7
				L58.6,190C61,187.7,61,184,58.7,181.7z"/>
			<path class="st3" d="M140.5,222.7l-17.9,17.9c-2.3,2.3-2.3,6,0,8.3c1.1,1.1,2.6,1.7,4.1,1.7s3-0.6,4.1-1.7l17.9-17.9
				c2.3-2.3,2.3-6,0-8.3C146.5,220.5,142.8,220.5,140.5,222.7z"/>
			<path class="st3" d="M129.6,181.7c-2.3-2.3-6-2.3-8.3,0l-17.9,17.9c-2.3,2.3-2.3,6,0,8.3c1.1,1.1,2.6,1.7,4.1,1.7s3-0.6,4.1-1.7
				l17.9-17.9C131.9,187.7,131.9,184,129.6,181.7z"/>
			<path class="st3" d="M200.6,181.7c-2.3-2.3-6-2.3-8.3,0l-17.9,17.9c-2.3,2.3-2.3,6,0,8.3c1.1,1.1,2.6,1.7,4.1,1.7s3-0.6,4.1-1.7
				l17.9-17.9C202.9,187.7,202.9,184,200.6,181.7z"/>
		</g>
		<path class="st3" d="M197,157.3H41.5c-22.6,0-40.9-18.3-40.9-40.9c0-22.5,18.2-40.7,40.6-40.9c3.2-39.4,35.9-70.1,75.7-70.1
			c26.9,0,51.5,14.1,65.2,37c4.9-1.3,9.9-2,14.9-2c32.2,0,58.4,26.2,58.4,58.4S229.2,157.3,197,157.3z M41.5,87.1
			c-16.1,0-29.2,13.1-29.2,29.2s13.1,29.2,29.2,29.2H197c25.8,0,46.7-21,46.7-46.7c0-25.8-21-46.8-46.7-46.8
			c-5.3,0-10.6,0.9-15.7,2.8l-4.8,1.7l-2.3-4.6c-11.1-21.6-33-35-57.2-35c-35.4,0-64.3,28.8-64.3,64.3V88L46,87.4
			C44.2,87.3,42.8,87.1,41.5,87.1z"/>
	</g>
	<g id="Thunderstorms" class="st1">
		<g>
			<path class="st3" d="M66.1,181.7c-2.3-2.3-6-2.3-8.3,0l-18,18c-2.3,2.3-2.3,6,0,8.3c1.1,1.1,2.6,1.7,4.1,1.7s3-0.6,4.1-1.7l18-18
				C68.4,187.7,68.4,184,66.1,181.7z"/>
			<path class="st3" d="M75.8,222.9l-18,18c-2.3,2.3-2.3,6,0,8.3c1.1,1.1,2.6,1.7,4.1,1.7s3-0.6,4.1-1.7l18-18c2.3-2.3,2.3-6,0-8.3
				C81.8,220.6,78.1,220.6,75.8,222.9z"/>
			<path class="st3" d="M219.8,181.7c-2.3-2.3-6-2.3-8.3,0l-18,18c-2.3,2.3-2.3,6,0,8.3c1.1,1.1,2.6,1.7,4.1,1.7s3-0.6,4.1-1.7
				l18-18C222.1,187.7,222.1,184,219.8,181.7z"/>
			<path class="st3" d="M170.2,222.9l-18,18c-2.3,2.3-2.3,6,0,8.3c1.1,1.1,2.6,1.7,4.1,1.7s3-0.6,4.1-1.7l18-18c2.3-2.3,2.3-6,0-8.3
				C176.2,220.6,172.5,220.6,170.2,222.9z"/>
		</g>
		<polyline class="st3" points="147.4,152.7 143.1,173.5 166.9,173.5 115.2,239.6 124.9,192.1 99.9,192.1 108,152.7 		"/>
		<path class="st3" d="M197,157.3H41.4c-22.6,0-40.9-18.4-40.9-40.9s18.2-40.7,40.6-40.9c3-39.2,35.8-70.2,75.8-70.2
			c27,0,51.5,14.1,65.2,37.1c4.9-1.3,9.9-2,14.9-2c32.2,0,58.5,26.2,58.5,58.5S229.3,157.3,197,157.3z M41.4,87.1
			c-16.1,0-29.3,13.1-29.3,29.2s13.1,29.2,29.3,29.2H197c25.8,0,46.8-21,46.8-46.8S222.8,52,197,52c-5.3,0-10.6,0.9-15.7,2.8
			l-4.8,1.7l-2.3-4.6c-11.1-21.6-33-35-57.2-35c-35.5,0-64.3,28.9-64.3,64.3V88L46,87.5C44.4,87.2,43,87.1,41.4,87.1z"/>
	</g>
	<text transform="matrix(1 0 0 1 86.2945 185.5109)" class="st7 st8 st9">?</text>
</g>
<g id="Normal_Advisory" class="st0">
	<polygon class="st10" points="6.5,232.1 249.5,232.1 128,23.9 	"/>
	<g class="st11">
		<path class="st3" d="M116.3,195.1c0-1.5,0.3-2.9,0.8-4.3c0.6-1.3,1.3-2.5,2.3-3.5s2.2-1.7,3.5-2.3s2.8-0.9,4.3-0.9
			s2.9,0.3,4.3,0.9c1.3,0.6,2.5,1.3,3.5,2.3s1.7,2.1,2.3,3.5c0.6,1.3,0.9,2.8,0.9,4.3s-0.3,3-0.9,4.3c-0.6,1.3-1.3,2.5-2.3,3.4
			c-1,1-2.1,1.7-3.5,2.3c-1.3,0.6-2.8,0.8-4.3,0.8s-3-0.3-4.3-0.8c-1.3-0.6-2.5-1.3-3.5-2.3s-1.8-2.1-2.3-3.4
			C116.5,198,116.3,196.6,116.3,195.1z M132.5,100.5c1.8,0,3.3,1.5,3.3,3.3v38c0,4.4-0.2,8.7-0.6,12.9c-0.3,3.4-0.8,6.9-1.3,10.5
			c-0.2,1.6-1.6,2.9-3.3,2.9h-6.3c-1.7,0-3-1.2-3.3-2.9c-0.5-3.7-1-7.2-1.3-10.5c-0.4-4.2-0.6-8.5-0.6-12.9v-38
			c0-1.8,1.5-3.3,3.3-3.3H132.5z"/>
	</g>
</g>
<g id="Advisary" class="st0">
	<polygon class="st12" points="6.5,232.1 249.5,232.1 128,23.9 	"/>
	<g class="st11">
		<path class="st13" d="M116.3,195.1c0-1.5,0.3-2.9,0.8-4.3c0.6-1.3,1.3-2.5,2.3-3.5s2.2-1.7,3.5-2.3s2.8-0.9,4.3-0.9
			s2.9,0.3,4.3,0.9c1.3,0.6,2.5,1.3,3.5,2.3s1.7,2.1,2.3,3.5c0.6,1.3,0.9,2.8,0.9,4.3s-0.3,3-0.9,4.3c-0.6,1.3-1.3,2.5-2.3,3.4
			c-1,1-2.1,1.7-3.5,2.3c-1.3,0.6-2.8,0.8-4.3,0.8s-3-0.3-4.3-0.8c-1.3-0.6-2.5-1.3-3.5-2.3s-1.8-2.1-2.3-3.4
			C116.5,198,116.3,196.6,116.3,195.1z M132.9,100.5c1.6,0,3,1.3,3,3v38.3c0,4.4-0.2,8.7-0.6,12.9c-0.4,3.5-0.8,7.1-1.4,10.9
			c-0.2,1.4-1.5,2.5-2.9,2.5h-7c-1.5,0-2.7-1.1-2.9-2.5c-0.5-3.8-1-7.4-1.4-10.9c-0.4-4.2-0.6-8.5-0.6-12.9v-38.3c0-1.6,1.3-3,3-3
			H132.9z"/>
	</g>
</g>
<g id="Orange_Advisary" class="st0">
	<polygon class="st14" points="6.5,232.1 249.5,232.1 128,23.9 	"/>
	<g class="st11">
		<path class="st15" d="M116.3,195.1c0-1.5,0.3-2.9,0.8-4.3c0.6-1.3,1.3-2.5,2.3-3.5s2.2-1.7,3.5-2.3s2.8-0.9,4.3-0.9
			s2.9,0.3,4.3,0.9c1.3,0.6,2.5,1.3,3.5,2.3s1.7,2.1,2.3,3.5c0.6,1.3,0.9,2.8,0.9,4.3s-0.3,3-0.9,4.3c-0.6,1.3-1.3,2.5-2.3,3.4
			c-1,1-2.1,1.7-3.5,2.3c-1.3,0.6-2.8,0.8-4.3,0.8s-3-0.3-4.3-0.8c-1.3-0.6-2.5-1.3-3.5-2.3s-1.8-2.1-2.3-3.4
			C116.5,198,116.3,196.6,116.3,195.1z M132.1,100.5c2.1,0,3.7,1.7,3.7,3.7v37.5c0,4.4-0.2,8.7-0.6,12.9c-0.3,3.2-0.8,6.6-1.3,10.1
			c-0.3,1.9-1.8,3.2-3.7,3.2h-5.6c-1.9,0-3.5-1.4-3.7-3.2c-0.5-3.5-0.9-6.9-1.3-10.1c-0.4-4.2-0.6-8.5-0.6-12.9v-37.5
			c0-2.1,1.7-3.7,3.7-3.7H132.1z"/>
	</g>
</g>
<g id="Red_Advisary" class="st0">
	<polygon class="st16" points="6.5,232.1 249.5,232.1 128,23.9 	"/>
	<g class="st11">
		<path class="st17" d="M116.3,195.1c0-1.5,0.3-2.9,0.8-4.3c0.6-1.3,1.3-2.5,2.3-3.5s2.2-1.7,3.5-2.3s2.8-0.9,4.3-0.9
			s2.9,0.3,4.3,0.9c1.3,0.6,2.5,1.3,3.5,2.3s1.7,2.1,2.3,3.5c0.6,1.3,0.9,2.8,0.9,4.3s-0.3,3-0.9,4.3c-0.6,1.3-1.3,2.5-2.3,3.4
			c-1,1-2.1,1.7-3.5,2.3c-1.3,0.6-2.8,0.8-4.3,0.8s-3-0.3-4.3-0.8c-1.3-0.6-2.5-1.3-3.5-2.3s-1.8-2.1-2.3-3.4
			C116.5,198,116.3,196.6,116.3,195.1z M131.4,100.5c2.4,0,4.4,2,4.4,4.4v36.9c0,4.4-0.2,8.7-0.6,12.9c-0.3,3.1-0.7,6.3-1.2,9.6
			c-0.3,2.2-2.2,3.8-4.4,3.8h-4.4c-2.2,0-4.1-1.6-4.4-3.8c-0.5-3.3-0.9-6.5-1.2-9.6c-0.4-4.2-0.6-8.5-0.6-12.9v-36.9
			c0-2.4,2-4.4,4.4-4.4H131.4z"/>
	</g>
</g>
<g id="Normal_Advisory_1_">
	<path class="st18" d="M22.5,233.1h210.9c12.4,0,20.1-13.4,13.8-24.1L141.8,28.3c-6.2-10.6-21.5-10.6-27.7,0L8.7,209
		C2.5,219.7,10.2,233.1,22.5,233.1z"/>
	<text transform="matrix(1 0 0 1 103.2695 203.1983)" class="st3 st19 st20">!</text>
</g>
<g id="Advisary_1_" class="st0">
	<path class="st12" d="M22.1,233.5h211.8c12.4,0,20.1-13.5,13.9-24.2L141.9,27.9c-6.2-10.6-21.6-10.6-27.8,0L8.2,209.3
		C2,220.1,9.7,233.5,22.1,233.5z"/>
	<text transform="matrix(1 0 0 1 103.1332 203.5006)" class="st21 st19 st22">!</text>
</g>
</svg>
