<?xml version="1.0" standalone="no"?>
<!DOCTYPE svg PUBLIC "-//W3C//DTD SVG 20010904//EN"
 "http://www.w3.org/TR/2001/REC-SVG-20010904/DTD/svg10.dtd">
<svg version="1.0" xmlns="http://www.w3.org/2000/svg"
 width="408.000000pt" height="382.000000pt" viewBox="0 0 408.000000 382.000000"
 preserveAspectRatio="xMidYMid meet">
<metadata>
Created by potrace 1.15, written by Peter Selinger 2001-2017
</metadata>
<g transform="translate(0.000000,382.000000) scale(0.100000,-0.100000)"
fill="#000000" stroke="none">
<path d="M915 2699 c-75 -10 -121 -29 -202 -84 -83 -57 -161 -86 -253 -92 -41
-3 -84 -10 -95 -16 -19 -10 -19 -11 5 -18 24 -7 23 -7 -6 -8 -17 -1 -37 -8
-44 -16 -14 -17 -50 -20 -50 -4 0 7 -10 9 -27 4 l-28 -7 30 27 c21 20 33 25
44 18 9 -5 24 -7 34 -5 31 7 18 17 -25 19 -48 3 -134 -19 -188 -47 -46 -24
-106 -83 -89 -89 7 -2 18 4 25 14 11 15 16 16 29 5 21 -17 31 -5 14 16 -13 16
-12 16 7 6 12 -6 25 -8 30 -4 5 4 -1 -5 -13 -19 -27 -30 -29 -39 -8 -39 8 0
15 4 15 9 0 5 7 12 16 15 8 3 12 2 9 -4 -3 -6 3 -10 15 -10 12 0 18 4 15 11
-4 6 -1 10 6 8 28 -3 39 1 39 16 0 19 19 20 26 1 3 -9 20 -15 42 -15 20 0 48
0 61 0 14 -1 29 5 33 12 6 9 10 9 16 0 4 -7 16 -12 27 -11 11 0 31 -2 45 -6
23 -6 27 -2 44 41 11 26 21 42 24 35 5 -17 22 -15 22 3 0 8 6 15 13 16 6 1 29
2 50 4 31 3 37 0 37 -15 0 -10 5 -22 10 -25 6 -3 10 0 10 7 0 9 3 9 10 -2 5
-8 10 -10 10 -5 0 6 4 5 8 -2 13 -20 84 27 93 61 5 16 13 32 20 36 6 5 1 10
-15 14 -35 9 -35 43 -1 52 14 3 25 9 25 13 0 15 65 8 84 -8 27 -24 150 -23
168 2 12 16 15 16 33 3 11 -8 20 -23 20 -33 0 -10 6 -19 13 -19 6 -1 17 -2 22
-3 6 0 10 -9 10 -19 0 -25 10 -34 24 -23 6 6 23 11 37 13 14 2 33 11 42 20 15
15 15 17 0 22 -12 5 -14 9 -5 18 7 7 12 15 12 19 0 17 -166 80 -233 89 -40 5
-74 9 -77 8 -3 0 -32 -4 -65 -9z"/>
<path d="M3503 2197 l16 -25 -35 4 c-36 4 -69 -11 -58 -27 3 -5 1 -9 -4 -9 -8
0 -32 -42 -32 -57 0 -3 7 -2 16 1 8 3 25 -1 37 -9 14 -9 44 -13 84 -12 57 2
65 5 90 34 24 28 35 33 78 34 72 3 82 1 89 -17 4 -10 2 -13 -7 -7 -18 11 -49
14 -43 4 3 -5 -3 -7 -13 -4 -11 3 -30 -2 -43 -11 -15 -11 -18 -16 -8 -17 18
-2 24 -3 73 -13 25 -6 42 -5 49 2 7 7 17 8 29 2 12 -7 19 -6 23 5 3 10 19 15
46 15 36 0 40 -2 31 -18 -9 -16 -6 -18 20 -14 16 2 26 8 23 13 -3 5 -10 6 -16
3 -6 -4 -8 -2 -5 3 9 14 -58 59 -122 84 -29 10 -98 24 -154 30 -56 5 -111 12
-122 15 -11 3 -29 8 -40 11 -18 5 -18 5 -2 -20z"/>
<path d="M0 2027 c0 -23 8 -41 26 -58 32 -30 84 -108 84 -126 0 -21 41 -59 77
-71 39 -13 53 0 29 27 -24 26 -20 33 15 27 l31 -5 -23 25 c-12 13 -28 24 -35
24 -7 0 -17 13 -22 29 -11 32 -51 73 -63 65 -4 -2 -20 -2 -34 2 -18 4 -24 11
-21 23 5 17 -35 71 -54 71 -5 0 -10 -15 -10 -33z"/>
<path d="M3901 2023 c1 -5 1 -15 0 -23 -1 -13 -2 -13 -11 0 -7 11 -10 11 -10
2 0 -7 -5 -10 -10 -7 -13 8 -24 -20 -16 -42 6 -14 9 -15 15 -4 6 10 10 9 14
-4 4 -9 3 -13 -3 -10 -6 3 -10 -1 -10 -9 0 -17 26 -27 70 -28 16 -1 27 -5 24
-10 -3 -4 2 -8 11 -8 11 0 15 -6 10 -19 -4 -14 -1 -19 12 -17 13 1 17 -5 15
-23 -1 -13 4 -31 12 -40 7 -9 12 -25 10 -36 -3 -11 -5 -37 -6 -57 -2 -21 -6
-38 -11 -38 -4 0 -5 -6 0 -12 4 -7 8 -17 9 -23 0 -5 2 -16 2 -24 1 -7 8 -11
17 -7 13 5 13 1 0 -31 -8 -19 -15 -37 -15 -39 0 -2 -7 -4 -15 -4 -8 0 -15 -4
-15 -10 0 -15 -27 -12 -62 6 -27 14 -29 18 -15 26 27 15 20 29 -8 18 -14 -5
-29 -9 -33 -9 -24 4 -42 -3 -42 -16 0 -9 -12 -26 -26 -39 l-26 -22 41 0 c22 1
41 3 41 6 0 3 32 5 70 6 39 0 67 -2 64 -5 -3 -3 -12 -6 -21 -6 -17 0 -26 -13
-40 -60 -6 -20 -15 -30 -28 -30 -14 0 -20 -7 -21 -25 -1 -43 -3 -48 -25 -53
-11 -3 -19 -11 -18 -19 4 -33 -3 -48 -26 -54 -14 -3 -25 -10 -25 -16 0 -5 5
-6 11 -2 8 5 8 1 0 -14 -15 -29 -30 -36 -65 -34 -16 2 -33 -3 -37 -10 -4 -6
-15 -13 -25 -14 -10 -2 -22 -10 -27 -19 -8 -15 -11 -15 -34 0 -20 14 -27 14
-41 3 -13 -11 -14 -11 -8 0 7 11 4 12 -13 2 -12 -6 -37 -9 -56 -6 -19 3 -37 1
-40 -5 -4 -6 -18 -14 -31 -19 -13 -5 -24 -17 -24 -25 0 -12 -6 -15 -20 -10
-14 5 -20 2 -20 -10 0 -9 5 -13 10 -10 24 15 7 -5 -25 -30 -44 -33 -83 -42
-91 -20 -4 8 -10 15 -16 15 -5 0 -6 -5 -3 -11 4 -5 4 -22 0 -36 -4 -19 -11
-24 -25 -20 -11 3 -24 -1 -31 -9 -12 -15 -30 -19 -28 -6 3 18 -2 32 -12 32 -5
0 -8 -4 -4 -9 3 -5 -8 -3 -25 5 -16 9 -30 19 -30 23 0 11 -43 11 -57 -1 -7 -6
-13 -7 -13 -3 0 4 -7 2 -15 -5 -10 -8 -32 -10 -65 -6 -39 5 -61 2 -95 -14 -24
-11 -49 -20 -55 -20 -7 0 -33 -11 -59 -24 -72 -37 -159 -68 -171 -61 -6 4 -16
2 -23 -3 -7 -5 -28 -13 -47 -17 -19 -4 -41 -12 -47 -17 -7 -6 -23 -8 -35 -5
-24 7 -61 -9 -53 -22 2 -5 -1 -14 -9 -20 -10 -9 -25 -6 -62 13 -85 42 -98 46
-131 44 -18 -2 -35 -9 -38 -15 -2 -7 -13 -13 -24 -13 -11 0 -22 -6 -24 -12 -4
-10 -6 -10 -6 0 -1 19 -39 14 -58 -8 -10 -11 -24 -20 -31 -20 -9 0 -12 -6 -8
-16 4 -10 0 -18 -13 -21 -11 -3 -17 -11 -15 -18 8 -21 -77 -11 -93 11 -7 10
-13 14 -13 8 0 -5 -4 -4 -8 2 -12 18 -71 34 -78 22 -4 -7 -2 -8 4 -4 7 4 12 3
12 -3 0 -15 -21 -25 -29 -13 -3 5 -15 12 -26 14 -11 1 -23 8 -27 13 -5 6 -8 6
-8 -2 0 -6 14 -23 30 -37 l31 -25 -29 2 c-22 1 -28 6 -24 20 5 21 -1 21 -41 1
l-32 -17 19 22 c15 17 16 20 4 16 -10 -4 -26 4 -43 21 -24 24 -25 26 -6 21 12
-3 21 -2 21 1 0 4 14 8 30 9 22 2 29 -1 24 -10 -4 -7 3 -2 15 11 29 29 22 48
-20 57 -18 4 -39 13 -46 21 -7 7 -22 11 -33 9 -16 -3 -26 6 -18 18 1 1 -4 12
-10 24 -11 21 -10 21 31 18 48 -3 73 10 57 30 -8 9 -8 15 0 20 5 3 10 17 10
30 0 16 7 25 25 29 13 3 34 16 45 29 12 12 25 23 31 23 5 1 15 2 22 3 8 0 14
7 14 14 0 6 2 19 4 27 3 10 -2 14 -16 12 -11 -2 -22 -8 -25 -13 -8 -12 -50 19
-50 37 0 8 -3 14 -7 14 -5 1 -34 2 -65 4 -35 2 -55 -1 -51 -7 6 -10 -52 -67
-68 -67 -5 0 -26 9 -46 20 -38 20 -63 14 -63 -16 0 -21 -45 -45 -76 -42 -23 2
-29 -1 -29 -17 0 -13 -7 -20 -20 -21 -42 -2 -63 -15 -58 -35 4 -16 0 -19 -26
-19 -19 0 -34 6 -37 15 -4 8 -11 15 -17 15 -6 0 -18 7 -28 16 -16 15 -19 14
-31 -5 -17 -28 -22 -27 -63 16 -36 38 -39 38 -57 3 -2 -3 -16 -13 -33 -22 -16
-9 -30 -23 -31 -30 -2 -28 -6 -32 -12 -16 -5 13 -11 15 -22 8 -13 -9 -13 -11
0 -19 12 -8 12 -11 -4 -17 -13 -5 -23 -1 -32 11 -11 15 -22 16 -67 11 -53 -7
-55 -6 -82 26 l-27 33 6 -42 c7 -46 3 -49 -62 -52 -22 -1 -31 2 -27 10 5 7 1
10 -11 7 -12 -2 -25 6 -36 24 -17 27 -19 28 -42 13 -30 -20 -44 -17 -77 16
-14 14 -33 28 -41 32 -9 3 -24 24 -34 46 -10 23 -23 41 -30 41 -15 0 -24 23
-24 59 0 33 -16 51 -46 51 -14 0 -25 -8 -29 -21 -5 -15 -9 -18 -15 -9 -6 10
-12 10 -31 0 -22 -12 -22 -13 -4 -26 17 -13 16 -14 -16 -14 -19 0 -45 8 -58
17 -14 9 -21 11 -17 5 12 -20 -5 -13 -25 11 -19 21 -20 21 -17 2 2 -13 24 -31
60 -50 31 -17 93 -65 136 -108 61 -58 99 -86 163 -117 114 -54 198 -65 444
-55 105 3 226 5 270 3 146 -6 240 -1 297 16 31 9 58 16 61 16 2 0 10 -21 16
-46 26 -104 104 -203 194 -247 131 -64 337 -81 478 -39 42 12 132 29 200 37
197 23 335 62 477 134 74 37 156 57 277 66 161 11 238 37 410 135 39 22 99 49
135 61 165 54 258 128 340 269 24 41 60 95 81 120 l38 45 0 263 c1 251 0 265
-20 293 -21 30 -45 40 -35 14 9 -24 -33 -18 -70 10 -32 25 -55 32 -53 18z"/>
</g>
</svg>
